#!OML:ASF F:\VICON\USERDATA\INSTALL\rory3\rory3.ASF
:FULLY-SPECIFIED
:DEGREES
2129
root 2.83304 15.7051 -3.65406 334.079 -68.3252 5.4736
lowerback 26.1257 2.18177 -4.43227
upperback 13.1462 0.913374 1.97967
thorax 0.0392917 -0.257693 4.45324
lowerneck -16.7646 -1.29099 -10.8546
upperneck 22.4585 -0.631149 6.69978
head 9.96082 -0.502641 4.10105
rclavicle 3.08116e-014 9.14409e-015
rhumerus -31.6585 40.9611 -90.3059
rradius 60.0175
rwrist -56.0587
rhand -24.256 9.90157
rfingers 7.12502
rthumb 2.23015 -20.0665
lclavicle 3.08116e-014 9.14409e-015
lhumerus -35.3938 -46.8527 104.665
lradius 53.6303
lwrist 30.8327
lhand -41.8574 30.9249
lfingers 7.12502
lthumb -14.7578 60.3796
rfemur -57.3714 -2.86078 22.6248
rtibia 95.2634
rfoot 23.5975 -14.4759
rtoes 16.2304
lfemur -55.4047 -2.5905 -2.42594
ltibia 96.7399
lfoot 17.9422 -4.42361
ltoes -14.7788
2130
root 2.80773 15.6917 -3.68066 334.812 -67.9971 4.97017
lowerback 25.9752 2.18542 -4.47911
upperback 13.0759 0.933873 2.09856
thorax 0.027488 -0.245431 4.60516
lowerneck -16.6169 -1.36439 -11.1572
upperneck 22.2263 -0.745777 7.05563
head 9.86275 -0.535677 4.25784
rclavicle 6.36111e-015 -1.55052e-014
rhumerus -31.9988 40.8557 -90.3765
rradius 60.3669
rwrist -56.3922
rhand -24.3874 9.73165
rfingers 7.12502
rthumb 2.1032 -20.2377
lclavicle 6.36111e-015 -1.55052e-014
lhumerus -35.4453 -46.543 104.561
lradius 53.7838
lwrist 30.4282
lhand -41.7156 30.4959
lfingers 7.12502
lthumb -14.6211 59.9605
rfemur -57.6661 -3.38438 22.6854
rtibia 96.0009
rfoot 23.104 -15.195
rtoes 15.7478
lfemur -55.4358 -1.99714 -2.60215
ltibia 97.0065
lfoot 18.1919 -4.70229
ltoes -14.6879
2131
root 2.76952 15.7063 -3.67329 335.125 -68.046 4.77932
lowerback 25.5428 2.2158 -4.21457
upperback 13.1347 1.0582 2.13573
thorax 0.282275 -0.175 4.46122
lowerneck -16.6267 -1.41948 -11.3613
upperneck 22.089 -0.826871 7.3366
head 9.82503 -0.553648 4.3796
rclavicle -8.05078e-014 7.55382e-015
rhumerus -32.3476 40.5992 -90.3973
rradius 60.6798
rwrist -56.7714
rhand -23.9789 9.49105
rfingers 7.12502
rthumb 2.49772 -20.4741
lclavicle -8.05078e-014 7.55382e-015
lhumerus -35.4669 -46.1904 104.507
lradius 53.8679
lwrist 30.0748
lhand -41.4943 29.9186
lfingers 7.12502
lthumb -14.4079 59.3985
rfemur -57.6572 -3.82409 22.6357
rtibia 96.5911
rfoot 22.9985 -15.2008
rtoes 14.8064
lfemur -55.0769 -1.31644 -2.91758
ltibia 97.3018
lfoot 18.2702 -4.81492
ltoes -15.0528
2132
root 2.74352 15.7025 -3.69143 335.289 -67.8333 4.65877
lowerback 25.5728 2.27739 -4.22218
upperback 13.1144 1.1399 2.12228
thorax 0.236638 -0.129658 4.43052
lowerneck -16.7991 -1.42523 -11.1076
upperneck 22.0899 -0.881846 7.33574
head 9.86168 -0.554145 4.33119
rclavicle -3.77691e-015 -2.82274e-014
rhumerus -32.7349 40.2658 -90.6089
rradius 61.0311
rwrist -57.1272
rhand -23.4178 9.28875
rfingers 7.12502
rthumb 3.03962 -20.6693
lclavicle -3.77691e-015 -2.82274e-014
lhumerus -35.6383 -46.0415 104.366
lradius 54.0057
lwrist 29.7776
lhand -41.5339 29.4525
lfingers 7.12502
lthumb -14.4461 58.9297
rfemur -57.6237 -4.35346 22.6059
rtibia 97.2212
rfoot 22.8832 -15.1063
rtoes 13.5645
lfemur -54.761 -0.752687 -3.19936
ltibia 97.5475
lfoot 18.5232 -4.82912
ltoes -13.9034
2133
root 2.71872 15.6943 -3.70654 335.702 -67.4621 4.40343
lowerback 25.5249 2.22337 -4.17428
upperback 13.0484 1.09507 2.10614
thorax 0.190026 -0.140802 4.39654
lowerneck -16.9588 -1.45782 -10.9497
upperneck 22.109 -0.952901 7.34071
head 9.90491 -0.570306 4.2993
rclavicle -1.76918e-014 1.15295e-014
rhumerus -33.0617 40.0126 -90.8082
rradius 61.3473
rwrist -57.6049
rhand -23.0143 9.21039
rfingers 7.12502
rthumb 3.42933 -20.7418
lclavicle -1.76918e-014 1.15295e-014
lhumerus -35.7843 -45.6313 104.127
lradius 54.1646
lwrist 29.3373
lhand -41.3918 28.712
lfingers 7.12502
lthumb -14.3092 58.1989
rfemur -57.7587 -4.92963 22.4931
rtibia 97.8574
rfoot 22.5709 -15.2219
rtoes 13.3891
lfemur -54.7375 -0.419111 -3.48076
ltibia 97.825
lfoot 18.9105 -4.86553
ltoes -11.9518
2134
root 2.6796 15.7056 -3.70016 335.888 -67.2741 4.50686
lowerback 25.0083 2.16093 -4.0188
upperback 13.0572 1.08278 2.05115
thorax 0.445528 -0.135683 4.24991
lowerneck -17.1085 -1.4964 -10.9317
upperneck 22.098 -0.974168 7.2729
head 9.9318 -0.582786 4.27017
rclavicle -2.48481e-014 -3.57812e-015
rhumerus -33.4338 39.8811 -90.8831
rradius 61.7738
rwrist -58.3017
rhand -22.9671 9.18171
rfingers 7.12502
rthumb 3.47487 -20.7697
lclavicle -2.48481e-014 -3.57812e-015
lhumerus -35.8818 -45.1924 103.911
lradius 54.3102
lwrist 29.0493
lhand -41.2358 27.7605
lfingers 7.12502
lthumb -14.1589 57.258
rfemur -57.9584 -5.40198 22.1794
rtibia 98.4555
rfoot 22.2057 -15.4242
rtoes 14.3971
lfemur -54.6719 -0.0206451 -3.95735
ltibia 98.1198
lfoot 19.0161 -5.29152
ltoes -11.9503
2135
root 2.6433 15.6971 -3.70778 336.804 -67.1612 3.61817
lowerback 24.852 2.08555 -3.6539
upperback 13.0559 1.07696 2.13367
thorax 0.519332 -0.12164 4.13207
lowerneck -17.2306 -1.49801 -10.9293
upperneck 22.0428 -0.952871 7.2546
head 9.93311 -0.570601 4.2656
rclavicle -7.61345e-014 2.5842e-014
rhumerus -33.8367 39.7496 -91.03
rradius 62.1664
rwrist -58.8495
rhand -23.0289 9.20762
rfingers 7.12502
rthumb 3.41516 -20.7448
lclavicle -7.61345e-014 2.5842e-014
lhumerus -36.0066 -44.6758 103.697
lradius 54.4117
lwrist 28.9281
lhand -41.4963 26.8538
lfingers 7.12502
lthumb -14.4099 56.3336
rfemur -57.9643 -5.86158 22.5066
rtibia 99.0192
rfoot 21.845 -15.5561
rtoes 13.8382
lfemur -54.5327 0.737735 -3.94655
ltibia 98.4775
lfoot 19.0578 -6.10152
ltoes -13.6697
2136
root 2.61982 15.6779 -3.7234 338.17 -66.9761 1.94573
lowerback 25.224 1.93579 -3.07579
upperback 13.0151 0.996742 2.3213
thorax 0.307154 -0.136494 4.02492
lowerneck -17.3605 -1.47569 -10.9219
upperneck 22.0145 -0.910098 7.27554
head 9.9429 -0.544333 4.27809
rclavicle -3.00165e-014 -1.19271e-015
rhumerus -34.2339 39.519 -91.2064
rradius 62.4614
rwrist -59.1734
rhand -22.9889 9.04605
rfingers 7.12502
rthumb 3.45383 -20.9057
lclavicle -3.00165e-014 -1.19271e-015
lhumerus -36.1943 -43.9694 103.55
lradius 54.3562
lwrist 28.7549
lhand -41.9187 25.7986
lfingers 7.12502
lthumb -14.8168 55.2488
rfemur -57.6425 -6.3547 23.1355
rtibia 99.5389
rfoot 21.4218 -15.6936
rtoes 13.2643
lfemur -54.2416 1.44529 -3.53014
ltibia 98.8401
lfoot 19.0861 -6.23398
ltoes -13.2403
2137
root 2.59225 15.6812 -3.7198 338.863 -66.8592 1.07971
lowerback 25.3268 1.81564 -2.58523
upperback 13.004 0.946573 2.38446
thorax 0.253449 -0.13821 3.82486
lowerneck -17.415 -1.44767 -10.823
upperneck 21.8698 -0.878216 7.25248
head 9.89762 -0.518561 4.25357
rclavicle 3.71727e-014 -3.57812e-014
rhumerus -34.67 39.393 -91.3225
rradius 62.8674
rwrist -59.6239
rhand -22.8045 8.81361
rfingers 7.12502
rthumb 3.6319 -21.1352
lclavicle 3.71727e-014 -3.57812e-014
lhumerus -36.3247 -43.152 103.393
lradius 54.1255
lwrist 28.5623
lhand -42.128 24.3864
lfingers 7.12502
lthumb -15.0184 53.8218
rfemur -57.3955 -6.82386 23.1992
rtibia 100.037
rfoot 20.9537 -15.9146
rtoes 14.9697
lfemur -53.939 1.83478 -3.38468
ltibia 99.1578
lfoot 19.1486 -5.41735
ltoes -9.64661
2138
root 2.56688 15.6742 -3.72791 339.122 -66.5851 0.761906
lowerback 25.5035 1.76172 -2.4468
upperback 12.9674 0.906896 2.39795
thorax 0.133754 -0.148093 3.77041
lowerneck -17.5929 -1.43175 -10.648
upperneck 21.7979 -0.865301 7.19585
head 9.903 -0.498857 4.20504
rclavicle 2.60408e-014 -1.51076e-014
rhumerus -35.0947 39.2904 -91.5043
rradius 63.2833
rwrist -59.7363
rhand -22.8781 8.70081
rfingers 7.12502
rthumb 3.56079 -21.2492
lclavicle 2.60408e-014 -1.51076e-014
lhumerus -36.2858 -42.5087 103.052
lradius 53.7787
lwrist 28.4813
lhand -42.1994 22.8728
lfingers 7.12502
lthumb -15.0872 52.3029
rfemur -57.3172 -7.33039 23.0629
rtibia 100.582
rfoot 20.5482 -16.0526
rtoes 16.0337
lfemur -53.7985 2.04079 -3.43682
ltibia 99.4682
lfoot 19.4072 -4.96913
ltoes -7.02203
2139
root 2.52637 15.6884 -3.70261 339.479 -66.7704 0.529831
lowerback 25.0566 1.68278 -1.90717
upperback 12.9813 0.934014 2.28137
thorax 0.362901 -0.101654 3.32667
lowerneck -17.7397 -1.39863 -10.4652
upperneck 21.7271 -0.845593 7.17964
head 9.90199 -0.47155 4.17042
rclavicle -1.63003e-014 -1.78906e-014
rhumerus -35.6609 39.2733 -91.865
rradius 63.7288
rwrist -59.4486
rhand -23.3736 8.69192
rfingers 7.12502
rthumb 3.08228 -21.2655
lclavicle -1.63003e-014 -1.78906e-014
lhumerus -36.2555 -41.8986 102.623
lradius 53.3441
lwrist 28.3398
lhand -41.9233 21.6792
lfingers 7.12502
lthumb -14.8212 51.1292
rfemur -57.3142 -7.69554 22.9827
rtibia 101.01
rfoot 20.5715 -15.5918
rtoes 15.224
lfemur -53.5651 2.59585 -3.59002
ltibia 99.8566
lfoot 19.4223 -4.66743
ltoes -5.92537
2140
root 2.5008 15.674 -3.71111 339.541 -66.499 0.586305
lowerback 25.1942 1.65333 -2.0017
upperback 12.8132 0.89168 2.2899
thorax 0.111741 -0.115376 3.40052
lowerneck -17.7721 -1.35864 -10.4206
upperneck 21.6417 -0.808226 7.2372
head 9.87334 -0.440993 4.18654
rclavicle -3.39922e-014 1.98785e-014
rhumerus -36.3014 39.2668 -92.1451
rradius 64.1468
rwrist -59.2535
rhand -23.4449 8.54309
rfingers 7.12502
rthumb 3.01349 -21.4154
lclavicle -3.39922e-014 1.98785e-014
lhumerus -36.2732 -41.1595 102.364
lradius 52.7128
lwrist 28.1957
lhand -41.392 21.1386
lfingers 7.12502
lthumb -14.3093 50.6255
rfemur -57.456 -8.1688 22.8186
rtibia 101.525
rfoot 20.4288 -15.4846
rtoes 14.715
lfemur -53.5192 2.89525 -3.8561
ltibia 100.177
lfoot 19.488 -4.76225
ltoes -5.90821
2141
root 2.47655 15.6597 -3.70821 339.893 -66.2278 0.377106
lowerback 25.2483 1.58131 -1.88528
upperback 12.6816 0.840157 2.3441
thorax -0.0566623 -0.127322 3.40561
lowerneck -17.8999 -1.3645 -10.4273
upperneck 21.5336 -0.803517 7.28043
head 9.85852 -0.428936 4.20217
rclavicle 5.52621e-014 2.46493e-014
rhumerus -36.712 39.0315 -92.2056
rradius 64.3961
rwrist -59.0967
rhand -23.2132 8.24184
rfingers 7.12502
rthumb 3.23721 -21.7133
lclavicle 5.52621e-014 2.46493e-014
lhumerus -36.1218 -40.4271 102.116
lradius 51.9415
lwrist 28.4049
lhand -40.8553 21.0231
lfingers 7.12502
lthumb -13.7922 50.5459
rfemur -57.6743 -8.62032 22.6563
rtibia 102.003
rfoot 20.3401 -15.2729
rtoes 14.4305
lfemur -53.6618 3.24347 -4.13108
ltibia 100.566
lfoot 19.5281 -4.96969
ltoes -6.80932
